<svg xmlns="http://www.w3.org/2000/svg" xmlns:xlink="http://www.w3.org/1999/xlink" width="528" height="476" viewBox="0 0 528 476">
    <defs>
        <path id="a" d="M504.922 93.425c34.087 98.71 50.013 199.532-96.494 300.69C261.92 495.272 89.567 482.119 42.8 461.858c-46.767-20.26-76.02-79.24 26.006-109.304 102.027-30.064 0-174.037 88.086-190.135 88.085-16.097 78.083-97.201 136.036-139.872C350.88-20.124 470.834-5.285 504.922 93.425z"/>
        <path id="c" d="M14.252 10.289C4.782 11.846-1.192 21.338 1.503 30.548l.091.312c2.251 7.693 9.85 12.53 17.772 11.311l61.349-9.437 9.278 65.971 18.779-20.807L80.413.308l-66.161 9.981z"/>
        <linearGradient id="d" x1="38.879%" x2="53.622%" y1="90.57%" y2="38.495%">
            <stop offset="0%" stop-color="#F2F4F6"/>
            <stop offset="100%" stop-color="#B8BFCF"/>
        </linearGradient>
        <path id="f" d="M13.398 13.573C3.964 15.338-1.8 24.959 1.096 34.109l.099.309c2.417 7.641 10.121 12.31 18.015 10.918l51.616-10.038 31.415 59.262 18.147-19.931L82.694.614 13.398 13.573z"/>
        <linearGradient id="g" x1="46.318%" x2="56.331%" y1="70.912%" y2="23.635%">
            <stop offset="0%" stop-color="#F2F4F6"/>
            <stop offset="100%" stop-color="#B8BFCF"/>
        </linearGradient>
        <path id="i" d="M13.801 13.391C4.367 15.155-1.395 24.776 1.5 33.927l.097.308a15.985 15.985 0 0 0 18.016 10.919l61.128-10.781 44.002 44.059 16.685-15.767L83.098.431l-69.297 12.96z"/>
        <linearGradient id="j" x1="49.103%" x2="56.226%" y1="62.356%" y2="18.336%">
            <stop offset="0%" stop-color="#F2F4F6"/>
            <stop offset="100%" stop-color="#B8BFCF"/>
        </linearGradient>
        <path id="l" d="M55.959 6.175L6.444 49.363c-6.689 5.833-7.552 15.918-1.952 22.804l.207.255c5.775 7.103 16.235 8.133 23.285 2.294l37.03-30.671L81.49 155.932l11.68 5.857 3.18 143.508 74.823-16.829-29.408-170.957L89.035 13.57C85.486 5.486 77.693.988 69.734.989c-4.835 0-9.733 1.661-13.775 5.186"/>
        <linearGradient id="m" x1="7.086%" x2="42.609%" y1="21.225%" y2="44.434%">
            <stop offset="0%" stop-color="#F2F4F6"/>
            <stop offset="100%" stop-color="#B8BFCF"/>
        </linearGradient>
        <path id="o" d="M7.293 3.307l-.237.165C.484 8.067-1.521 16.903 2.425 23.883l40.036 70.825a61.758 61.758 0 0 0 34.682 28.345l.232.076 22.031-38.467-31.64-29.534L28.315 6.282A15.545 15.545 0 0 0 16.199.498c-3.087 0-6.199.916-8.906 2.809"/>
        <linearGradient id="p" x1="18.115%" x2="73.832%" y1="28.006%" y2="73.273%">
            <stop offset="0%" stop-color="#F2F4F6"/>
            <stop offset="100%" stop-color="#B8BFCF"/>
        </linearGradient>
        <path id="r" d="M8.764.983L5.646 6.394l1.917-4.521a.597.597 0 0 0-1.072-.52l-4.654 8.746.969 1.735-2.639 3.769 4.045 2.147 1.835-3.411.922-.41a1.79 1.79 0 0 0 .898-.878l3.753-7.995a.481.481 0 0 0-.849-.453L8.908 7.695l1.972-4.677a.56.56 0 1 0-1.01-.488L7.495 6.851l2.28-5.365a.567.567 0 0 0-.521-.788.562.562 0 0 0-.49.285"/>
        <linearGradient id="s" x1="68.589%" x2="28.907%" y1="26.138%" y2="79.802%">
            <stop offset="0%" stop-color="#F4F6F7"/>
            <stop offset="100%" stop-color="#B8BFCF"/>
        </linearGradient>
        <path id="u" d="M2.433 1.278c-.486 1.239-1.18 3.526-1.315 4.206-.171.864 1.197 3.38 1.197 3.38L.167 12.603S4.139 9.694 4.451 8.17c.313-1.526-.176-2.337-1.066-3.18-.657-.624-.158-2.416.147-3.31a.582.582 0 0 0-.555-.773.583.583 0 0 0-.544.371"/>
        <linearGradient id="v" x1="88.572%" x2="5.023%" y1="28.817%" y2="62.775%">
            <stop offset="0%" stop-color="#F4F6F7"/>
            <stop offset="100%" stop-color="#B8BFCF"/>
        </linearGradient>
        <path id="x" d="M67.078 5.376C48.974 18.007 60.53 64.519 60.53 64.519l-.191.096a78.374 78.374 0 0 0-30.484 27.287L.949 136.348l5.535 3.854 72.06-75.35L95.533 9.236S90.122.614 80.279.615c-3.769 0-8.189 1.265-13.201 4.761"/>
        <linearGradient id="y" x1="82.626%" x2="12.582%" y1="15.695%" y2="98.094%">
            <stop offset="0%" stop-color="#0A245B"/>
            <stop offset="100%" stop-color="#1C3467"/>
        </linearGradient>
        <path id="A" d="M33.817 1.361c-4.097.934-13.422 8.275-14.893 14.417C17.455 21.921.078 57.376.078 57.376l28.455 3.86s.573-1.898 2.872-8.619 5.827-13.281 13.536-24.588 5.518-24.844 5.518-24.844C50.304 1.478 45.165.826 40.425.826c-2.633 0-5.144.201-6.608.535"/>
        <linearGradient id="B" x1="54.763%" x2="-7.386%" y1="53.582%" y2="93.65%">
            <stop offset="0%" stop-color="#F4F6F7"/>
            <stop offset="100%" stop-color="#B8BFCF"/>
        </linearGradient>
        <path id="D" d="M.475 3.844s.411 3.802 1.036 7.091c.626 3.289.253 8.031.253 8.031 4.925 5.418 10.489 4.552 10.489 4.552s.902-9.991.669-13.805c-.233-3.815 4.333-7.714 4.333-7.714s-5.136 2.963-8.076 4.373C6.239 7.78 2.458.544 2.458.544l-1.983 3.3z"/>
        <linearGradient id="E" x1="34.627%" x2="98.039%" y1="52.208%" y2="29.141%">
            <stop offset="0%" stop-color="#F4F6F7"/>
            <stop offset="100%" stop-color="#B8BFCF"/>
        </linearGradient>
        <path id="G" d="M.627 3.761l.586 3.493c.091.541.588.917 1.134.858l.019-.003c.553-.06.958-.547.919-1.102L2.811.328.627 3.761z"/>
        <linearGradient id="H" x1="78.309%" x2="42.721%" y1="97.16%" y2="25.675%">
            <stop offset="0%" stop-color="#F4F6F7"/>
            <stop offset="100%" stop-color="#B8BFCF"/>
        </linearGradient>
        <path id="J" d="M3.196 7.689L.889 10.503l-.306 5.042a.83.83 0 0 0 .499.812l.01.005a.83.83 0 0 0 .964-.228l.096-.113-.069.795a.95.95 0 0 0 .439.884l.012.008a.95.95 0 0 0 1.23-.188l.193-.227-.084.322a.98.98 0 0 0 .462 1.097l.012.007a.976.976 0 0 0 1.102-.09l.527-.426-.076.376a1.225 1.225 0 0 0 .91 1.43l.024.006a1.224 1.224 0 0 0 1.468-.853l2.53-8.818L7.1 7.767 7.247.385 3.342.308l-.146 7.381z"/>
        <linearGradient id="K" x1="48.507%" x2="52.256%" y1="87.448%" y2="28.755%">
            <stop offset="0%" stop-color="#F4F6F7"/>
            <stop offset="100%" stop-color="#B8BFCF"/>
        </linearGradient>
    </defs>
    <g fill="none" fill-rule="evenodd">
        <mask id="b" fill="#fff">
            <use xlink:href="#a"/>
        </mask>
        <use fill="#536FA8" xlink:href="#a"/>
        <g mask="url(#b)">
            <path fill="#FFF" d="M412.912 177.79C296.208 482.519-45 430.75-45 430.75v3.603s355.573 52.394 472.277-252.333l12.046 8.204-10.37-31.437-33.286 17.832 17.245 1.172z"/>
            <g transform="translate(506 188.787)">
                <mask id="e" fill="#fff">
                    <use xlink:href="#c"/>
                </mask>
                <path fill="url(#d)" d="M14.252 10.289C4.782 11.846-1.192 21.338 1.503 30.548l.091.312c2.251 7.693 9.85 12.53 17.772 11.311l61.349-9.437 9.278 65.971 18.779-20.807L80.413.308l-66.161 9.981z" mask="url(#e)"/>
            </g>
            <g transform="translate(483 166.787)">
                <mask id="h" fill="#fff">
                    <use xlink:href="#f"/>
                </mask>
                <path fill="url(#g)" d="M13.398 13.573C3.964 15.338-1.8 24.959 1.096 34.109l.099.309c2.417 7.641 10.121 12.31 18.015 10.918l51.616-10.038 31.415 59.262 18.147-19.931L82.694.614 13.398 13.573z" mask="url(#h)"/>
            </g>
            <g transform="translate(462 147.787)">
                <mask id="k" fill="#fff">
                    <use xlink:href="#i"/>
                </mask>
                <path fill="url(#j)" d="M13.801 13.391C4.367 15.155-1.395 24.776 1.5 33.927l.097.308a15.985 15.985 0 0 0 18.016 10.919l61.128-10.781 44.002 44.059 16.685-15.767L83.098.431l-69.297 12.96z" mask="url(#k)"/>
            </g>
            <g transform="translate(492 138.787)">
                <mask id="n" fill="#fff">
                    <use xlink:href="#l"/>
                </mask>
                <path fill="url(#m)" d="M55.959 6.175L6.444 49.363c-6.689 5.833-7.552 15.918-1.952 22.804l.207.255c5.775 7.103 16.235 8.133 23.285 2.294l37.03-30.671L81.49 155.932l11.68 5.857 3.18 143.508 74.823-16.829-29.408-170.957L89.035 13.57C85.486 5.486 77.693.988 69.734.989c-4.835 0-9.733 1.661-13.775 5.186" mask="url(#n)"/>
            </g>
            <path fill="#122C60" d="M426.946 170.49l-2.88-.068c-.626-.015-.906.778-.41 1.16l2.23 1.716 1.06-2.808z"/>
            <path fill="#1C3567" d="M453.547 197.823l10.365-27.46 189.38 71.49c7.584 2.863 11.41 11.33 8.549 18.913-2.863 7.583-11.331 11.41-18.913 8.548l-189.381-71.491z"/>
            <path fill="#4F6289" d="M458.73 184.093l5.183-13.73-37.601-.316-.598 1.583-.597 1.582 28.43 24.61z"/>
            <g transform="translate(508 186.787)">
                <mask id="q" fill="#fff">
                    <use xlink:href="#o"/>
                </mask>
                <path fill="url(#p)" d="M7.293 3.307l-.237.165C.484 8.067-1.521 16.903 2.425 23.883l40.036 70.825a61.758 61.758 0 0 0 34.682 28.345l.232.076 22.031-38.467-31.64-29.534L28.315 6.282A15.545 15.545 0 0 0 16.199.498c-3.087 0-6.199.916-8.906 2.809" mask="url(#q)"/>
            </g>
            <path fill="#CCD2DD" d="M519.379 192.733l-.202.126c-5.531 3.446-7.222 10.723-3.777 16.254l1.752 2.812a3.89 3.89 0 0 0 5.36 1.245l13.628-8.489a3.89 3.89 0 0 0 1.245-5.36l-1.752-2.812c-3.445-5.53-10.723-7.222-16.254-3.776"/>
            <g transform="translate(327 141.787)">
                <mask id="t" fill="#fff">
                    <use xlink:href="#r"/>
                </mask>
                <path fill="url(#s)" d="M8.764.983L5.646 6.394l1.917-4.521a.597.597 0 0 0-1.072-.52l-4.654 8.746.969 1.735-2.639 3.769 4.045 2.147 1.835-3.411.922-.41a1.79 1.79 0 0 0 .898-.878l3.753-7.995a.481.481 0 0 0-.849-.453L8.908 7.695l1.972-4.677a.56.56 0 1 0-1.01-.488L7.495 6.851l2.28-5.365a.567.567 0 0 0-.521-.788.562.562 0 0 0-.49.285" mask="url(#t)"/>
            </g>
            <g transform="translate(327 144.787)">
                <mask id="w" fill="#fff">
                    <use xlink:href="#u"/>
                </mask>
                <path fill="url(#v)" d="M2.433 1.278c-.486 1.239-1.18 3.526-1.315 4.206-.171.864 1.197 3.38 1.197 3.38L.167 12.603S4.139 9.694 4.451 8.17c.313-1.526-.176-2.337-1.066-3.18-.657-.624-.158-2.416.147-3.31a.582.582 0 0 0-.555-.773.583.583 0 0 0-.544.371" mask="url(#w)"/>
            </g>
            <path fill="#1C3567" d="M282.72 172.635l15.86 20.14c2.965 3.762 8.69 3.689 11.557-.148l22.434-35.232-4.163-2.982-23.835 28.509-16.114-23.95-5.74 13.663z"/>
            <g transform="translate(171 207.787)">
                <mask id="z" fill="#fff">
                    <use xlink:href="#x"/>
                </mask>
                <path fill="url(#y)" d="M67.078 5.376C48.974 18.007 60.53 64.519 60.53 64.519l-.191.096a78.374 78.374 0 0 0-30.484 27.287L.949 136.348l5.535 3.854 72.06-75.35L95.533 9.236S90.122.614 80.279.615c-3.769 0-8.189 1.265-13.201 4.761" mask="url(#z)"/>
            </g>
            <path fill="#1C3567" d="M266.533 217.023l31.836 9.651c9.462 2.87 10.777 15.725 2.092 20.45l-87.115 46.998-3.252-5.9 23.218-21.075a91.684 91.684 0 0 1 44.623-23.579l1.73-.364s-68.369-4.002-41.587-30.04c26.782-26.039 28.455 3.86 28.455 3.86"/>
            <path fill="#384E7A" d="M275.288 154.936l2.215.29-2.183.598zM209.844 178.217s7.832 6.246 6.2 14.388c-1.631 8.142 16.86 21.93 31.117 11.658 14.257-10.272-37.317-26.046-37.317-26.046"/>
            <path fill="#1C3567" d="M171.957 344.139l-2.6 3.77 2.585 1.782 1.335-1.938s.926 3.496 2.211 4.382l4.717 3.252s1.225-1.696.023-2.557c-1.203-.86-3.866-2.241-3.627-3.218.239-.978.883-1.622.883-1.622l-5.527-3.851zM210.173 288.183l-3.93 2.353 1.615 2.691 2.018-1.208s-.607 3.565.193 4.904l2.945 4.915s1.817-1.036 1.08-2.317c-.736-1.28-2.587-3.644-1.965-4.434.623-.79 1.477-1.109 1.477-1.109l-3.433-5.796zM288.36 158.637s5.081 6.676 1.857 17.633c-3.222 10.957-22.012 27.425-23.56 29.894-1.547 2.47.457-15.226 5.431-22.052 4.973-6.827 13.544-26.658 16.271-25.475"/>
            <g transform="translate(238 155.787)">
                <mask id="C" fill="#fff">
                    <use xlink:href="#A"/>
                </mask>
                <path fill="url(#B)" d="M33.817 1.361c-4.097.934-13.422 8.275-14.893 14.417C17.455 21.921.078 57.376.078 57.376l28.455 3.86s.573-1.898 2.872-8.619 5.827-13.281 13.536-24.588 5.518-24.844 5.518-24.844C50.304 1.478 45.165.826 40.425.826c-2.633 0-5.144.201-6.608.535" mask="url(#C)"/>
            </g>
            <g>
                <path fill="#667798" d="M286.932 160.158l.305 8.736-.967-3.619-2.325 2.361s.549-2.582 1.814-4.286c1.265-1.705 1.173-3.192 1.173-3.192"/>
                <path fill="#1C3567" d="M276.087 134.444l2.3-3.959s1.944-5.209-3.446-5.485c0 0 1.658 2.561-1.533 5.735-3.19 3.173-9.705 4.554-8.177 8.421 1.526 3.867 9.999-.528 10.856-4.712"/>
                <path fill="#1C3567" d="M266.577 139.33s-2.402.581-1.519 4.393c.885 3.811 10.485 7.55 11.33 11.4 0 0 5.88-7.645 5.528-11.444-.352-3.8-3.497-10.93-8.617-7.845-5.12 3.085-6.722 3.497-6.722 3.497"/>
            </g>
            <g transform="translate(274 141.787)">
                <mask id="F" fill="#fff">
                    <use xlink:href="#D"/>
                </mask>
                <path fill="url(#E)" d="M.475 3.844s.411 3.802 1.036 7.091c.626 3.289.253 8.031.253 8.031 4.925 5.418 10.489 4.552 10.489 4.552s.902-9.991.669-13.805c-.233-3.815 4.333-7.714 4.333-7.714s-5.136 2.963-8.076 4.373C6.239 7.78 2.458.544 2.458.544l-1.983 3.3z" mask="url(#F)"/>
            </g>
            <g>
                <path fill="#FFF" d="M278.388 130.485s3.468 1.329 3.85 1.996c.383.668.448 1.372.739 1.57.244.166 3.938 1.379 5.116 1.764a.449.449 0 0 1 .312.487c-.06.363-.351.81-.641 1.215-.528.738.835 1.883.835 1.883l2.53 2.667a1.361 1.361 0 0 1-.11 1.977c-2.264 1.907-7.416 5.97-9.28 5.123-2.416-1.1-5.1-5.377-5.1-5.377l-2.473.493a1.166 1.166 0 0 1-1.126-.401l-.016-.02a1.166 1.166 0 0 1 .598-1.868l2.65-.705 1.867 1.967a1.038 1.038 0 0 0 1.468.039l.013-.014c.368-.348.43-.912.147-1.332l-4.373-4.568-3.558-.682 6.552-6.214z"/>
                <path fill="#1C3567" d="M281.577 134.234s-.255.15-.64 1.134c-.386.984-.494 1.456-.494 1.456s.665-.005 1.167-.374c.503-.37.83-.694.83-.694l-.863-1.522z"/>
                <path fill="#667798" d="M275.296 154.924l7.114 7.65-4.916 3.173-3.276-9.359z"/>
                <path fill="#3D537D" d="M286.27 165.275l-3.86-2.702-1.995 1.288s.303 3.388 2.37 3.838c2.064.451 3.4-1.499 3.484-2.424"/>
                <path fill="#3D537D" d="M284.825 167.786s.1-1.967-1.766-1.599c-1.863.37-2.5.861-1.694 1.507.808.647 3.36 1.34 3.46.093"/>
                <path fill="#1C3567" d="M274.22 156.39l-17.18-.361a3.842 3.842 0 0 0-3.805 2.893l-7.114 27.88s24.868-19.744 28.099-30.412"/>
                <path fill="#1C3567" d="M274.22 156.39s7.119 16.914-15.167 36.479c-22.286 19.563-55.718-16.855-55.718-16.855s11.199-5.266 29.273.795c18.073 6.063 40.297-17.181 41.612-20.42"/>
                <path fill="#384E7A" d="M273.593 157.13l-5.934 8.622 3.876 1.739-4.381 1.292s-2.91 11.433-5.645 16.28c-2.737 4.847-4.986 7.175-4.986 7.175s12.065-9.095 15.314-17.971c3.25-8.876 1.756-17.137 1.756-17.137"/>
                <path fill="#3D537D" d="M282.784 167.7s-8.467-19.486-23.259-18.673c-14.79.814-26.01 10.972-26.01 10.972l.131 4.93 5.032-.746s9.744-10.48 17.635-10.893c7.892-.414 9.904-1.445 15.865 4.617 5.96 6.063 9.274 11.406 9.274 11.406s1.455.79 2.14-.053c.684-.844.432-1.916.432-1.916l-1.24.356z"/>
                <path fill="#384E7A" d="M261.3 168.956l-11.277 2.556 1.052-4.126z"/>
            </g>
            <g transform="translate(226 213.787)">
                <mask id="I" fill="#fff">
                    <use xlink:href="#G"/>
                </mask>
                <path fill="url(#H)" d="M.627 3.761l.586 3.493c.091.541.588.917 1.134.858l.019-.003c.553-.06.958-.547.919-1.102L2.811.328.627 3.761z" mask="url(#I)"/>
            </g>
            <g>
                <path fill="#1C3567" d="M214.747 224.183c-.489 4.167 2.502 7.957 6.67 8.446 4.167.49 7.956-2.502 8.446-6.67.49-4.168-2.502-7.957-6.67-8.446-4.167-.49-7.956 2.502-8.446 6.67m-1.374-.162c.58-4.925 5.057-8.461 9.982-7.882 4.926.578 8.461 5.056 7.883 9.981-.579 4.926-5.057 8.462-9.983 7.883-4.925-.578-8.46-5.056-7.882-9.982"/>
                <path fill="#1C3567" d="M200.725 255.408l35.694 4.196a2.789 2.789 0 0 0 3.096-2.445l3.37-28.667a2.789 2.789 0 0 0-2.444-3.095l-35.695-4.197a2.789 2.789 0 0 0-3.095 2.445l-3.37 28.667a2.788 2.788 0 0 0 2.444 3.096"/>
                <path fill="#001C54" d="M202.735 238.304l35.694 4.196a2.788 2.788 0 0 0 3.096-2.444l1.36-11.564a2.789 2.789 0 0 0-2.445-3.095l-35.694-4.197a2.79 2.79 0 0 0-3.096 2.445l-1.359 11.563a2.788 2.788 0 0 0 2.444 3.096"/>
                <path fill="#1C3567" d="M202.808 237.69l35.694 4.197a2.789 2.789 0 0 0 3.096-2.444l1.287-10.95a2.79 2.79 0 0 0-2.444-3.096l-35.695-4.196a2.787 2.787 0 0 0-3.095 2.444l-1.288 10.95a2.79 2.79 0 0 0 2.445 3.096"/>
                <path fill="#FFF" d="M218.083 241.856l4.594.54a.847.847 0 0 0 .94-.743l.277-2.348a.85.85 0 0 0-.744-.941l-4.592-.54a.849.849 0 0 0-.942.743l-.276 2.348a.848.848 0 0 0 .743.94"/>
                <path fill="#D6DBE4" d="M218.17 240.774a.53.53 0 1 0 1.054.124.53.53 0 0 0-1.054-.124"/>
                <path fill="#FFF" d="M218.294 240.676a.531.531 0 1 0 1.055.123.531.531 0 0 0-1.055-.123"/>
                <path fill="#D6DBE4" d="M221.58 241.175a.53.53 0 1 0 1.054.124.53.53 0 0 0-1.054-.124"/>
                <path fill="#FFF" d="M221.705 241.077a.53.53 0 1 0 1.054.124.53.53 0 0 0-1.054-.124"/>
            </g>
            <g transform="translate(218 203.787)">
                <mask id="L" fill="#fff">
                    <use xlink:href="#J"/>
                </mask>
                <path fill="url(#K)" d="M3.196 7.689L.889 10.503l-.306 5.042a.83.83 0 0 0 .499.812l.01.005a.83.83 0 0 0 .964-.228l.096-.113-.069.795a.95.95 0 0 0 .439.884l.012.008a.95.95 0 0 0 1.23-.188l.193-.227-.084.322a.98.98 0 0 0 .462 1.097l.012.007a.976.976 0 0 0 1.102-.09l.527-.426-.076.376a1.225 1.225 0 0 0 .91 1.43l.024.006a1.224 1.224 0 0 0 1.468-.853l2.53-8.818L7.1 7.767 7.247.385 3.342.308l-.146 7.381z" mask="url(#L)"/>
            </g>
            <path fill="#1C3567" d="M255.377 156.371l-26.77 5.717a8.285 8.285 0 0 0-6.522 7.392l-2.597 40.194 6.986-.273 4.773-37.409 30.053-3.037-5.923-12.584z"/>
        </g>
    </g>
</svg>
