<svg xmlns="http://www.w3.org/2000/svg" xmlns:xlink="http://www.w3.org/1999/xlink" width="395" height="307" viewBox="0 0 395 307">
    <defs>
        <path id="a" d="M2.586 1.543h157.6V13.12H2.586z"/>
    </defs>
    <g fill="none" fill-rule="evenodd">
        <g transform="translate(112.947 293.51)">
            <mask id="b" fill="#fff">
                <use xlink:href="#a"/>
            </mask>
            <path fill="#B0BEDB" d="M160.186 7.332c0 3.196-35.28 5.788-78.8 5.788-43.52 0-78.8-2.592-78.8-5.788 0-3.199 35.28-5.789 78.8-5.789 43.52 0 78.8 2.59 78.8 5.789" mask="url(#b)"/>
        </g>
        <path fill="#244C9C" d="M218.088 79.571c8.537-8.525 7.376-23.508 7.376-23.508s-14.998-1.16-23.532 7.366c-8.537 8.527-7.376 23.51-7.376 23.51s14.998 1.16 23.532-7.368"/>
        <path stroke="#4A6BAE" stroke-linecap="round" stroke-linejoin="round" stroke-width="2" d="M194.332 136.461V26.487"/>
        <path fill="#4A6BAE" d="M202.12 14.556C202.12 6.519 194.504 0 194.504 0s-7.617 6.518-7.617 14.555c0 8.037 7.617 14.555 7.617 14.555s7.618-6.518 7.618-14.555M188.028 47.678c-7.113-7.106-19.61-6.14-19.61-6.14s-.967 12.484 6.146 19.59c7.113 7.106 19.61 6.14 19.61 6.14s.967-12.485-6.146-19.59"/>
        <path fill="#3358A3" d="M210.555 142.248h-32.448c-23.928 15.466-62.575 65.493-62.575 96.083 0 25.786 7.794 42.022 24.723 56.047 5.02 4.157 11.326 6.463 17.848 6.463h72.459c6.522 0 12.826-2.306 17.846-6.463 16.928-14.025 24.724-30.261 24.724-56.047 0-30.59-38.648-80.617-62.577-96.083M226.615 113.654c-1.723-.827-4.626-1.029-6.446-.443l-7.859 2.51c-1.823.583-4.58.148-6.133-.97l-8.842-6.358c-1.552-1.118-4.092-1.118-5.644 0l-8.839 6.358c-1.552 1.118-4.313 1.553-6.133.973l-7.87-2.516c-1.823-.583-4.723-.38-6.446.446l-5.81 2.787c-1.723.824-2.004 2.582-.625 3.904l20.38 19.501c1.38 1.323 4.074 2.401 5.987 2.401h24.333c1.915 0 4.607-1.081 5.989-2.4l20.377-19.505c1.385-1.322 1.101-3.08-.622-3.904l-5.797-2.784z"/>
        <path fill="#00308F" d="M232.412 116.437l-5.797-2.784c-1.723-.824-4.626-1.026-6.446-.444l-7.859 2.514c-1.823.583-4.58.144-6.133-.97l-8.842-6.361c-.822-.593-1.92-.86-3.004-.824v34.68h12.337c1.915 0 4.607-1.08 5.989-2.403l20.377-19.501c1.385-1.323 1.101-3.08-.622-3.907M210.555 142.248h-16.223v158.593h36.23c6.522 0 12.826-2.306 17.846-6.463 16.928-14.025 24.724-30.261 24.724-56.047 0-30.59-38.648-80.617-62.577-96.083"/>
        <path fill="#A6B6D7" d="M198.045 223.221c-7.132-2.91-8.337-4.361-8.337-6.51 0-.95.417-4.04 5.768-4.04 4.678 0 7.62 1.658 8.876 2.366l1.757.992c.64.36 1.387.094 1.65-.596l3.296-8.583c.194-.509-.032-1.146-.5-1.417l-1.286-.742c-2.743-1.588-5.766-2.574-9.178-2.994v-6.877c0-.638-.523-1.16-1.158-1.16h-8.547c-.636 0-1.156.522-1.156 1.16v7.549c-7.58 2.096-12.346 7.898-12.346 15.308 0 9.44 7.754 13.712 15.309 16.635 6.52 2.606 7.417 4.857 7.417 6.904 0 2.996-2.744 5.009-6.832 5.009-3.525 0-7.328-1.118-10.178-2.991l-1.839-1.207c-.672-.444-1.45-.187-1.725.572l-3.165 8.714c-.169.459.02 1.06.42 1.343l1.085.764c2.776 1.952 6.994 3.38 11.281 3.88v7.18c0 .635.52 1.157 1.159 1.157h8.626c.638 0 1.158-.522 1.158-1.157v-7.801c7.82-2.186 12.915-8.381 12.915-16.025 0-10.293-7.74-14.728-14.47-17.433M214.613 148.037h-40.559a5.79 5.79 0 0 1-5.794-5.789 5.79 5.79 0 0 1 5.794-5.788h40.559a5.79 5.79 0 0 1 5.792 5.788 5.79 5.79 0 0 1-5.792 5.789"/>
        <path fill="#C9D3E7" d="M189.708 216.71c0-.874.365-3.569 4.623-3.983V193.66h-3.945c-.636 0-1.159.52-1.159 1.158v7.549c-7.578 2.096-12.342 7.898-12.342 15.308 0 9.443 7.754 13.715 15.308 16.635.796.318 1.502.63 2.138.937v-13.673c-3.856-1.895-4.623-3.162-4.623-4.865M192.779 246.224c-3.525 0-7.331-1.118-10.179-2.991l-1.838-1.207c-.675-.444-1.45-.187-1.726.572l-3.165 8.714c-.168.459.02 1.062.42 1.343l1.085.764c2.776 1.952 6.995 3.38 11.281 3.883v7.177c0 .635.52 1.157 1.159 1.157h4.515v-19.522c-.491.068-1.006.11-1.552.11M174.053 136.461a5.79 5.79 0 0 0-5.794 5.788 5.793 5.793 0 0 0 5.794 5.789h20.278V136.46h-20.278z"/>
        <path fill="#A8B8D8" d="M130.95 105.429c0-17.904-14.527-32.417-32.45-32.417-17.921 0-32.45 14.513-32.45 32.417 0 17.903 14.529 32.416 32.45 32.416 17.923 0 32.45-14.513 32.45-32.416"/>
        <path fill="#617EB8" d="M98.5 137.846a32.3 32.3 0 0 0 18.386-5.72c-4.56-6.547-11.098-10.68-18.387-10.68-7.286 0-13.824 4.133-18.386 10.68a32.306 32.306 0 0 0 18.386 5.72"/>
        <path fill="#617EB8" d="M110.976 105.047c0 9.058-5.584 16.4-12.477 16.4-6.89 0-12.476-7.342-12.476-16.4s5.587-16.4 12.476-16.4c6.893 0 12.477 7.342 12.477 16.4"/>
        <path fill="#A8B8D8" d="M328.444 71.234c0-17.903-14.528-32.416-32.45-32.416-17.924 0-32.452 14.513-32.452 32.416s14.528 32.416 32.453 32.416c17.921 0 32.45-14.513 32.45-32.416"/>
        <path fill="#617EB8" d="M295.993 103.65c6.832 0 13.16-2.117 18.39-5.717-4.563-6.55-11.103-10.682-18.39-10.682-7.286 0-13.826 4.132-18.386 10.682a32.304 32.304 0 0 0 18.386 5.717M308.47 70.851c0 9.058-5.584 16.4-12.477 16.4-6.89 0-12.476-7.342-12.476-16.4s5.587-16.4 12.476-16.4c6.893 0 12.477 7.342 12.477 16.4"/>
        <path fill="#A8B8D8" d="M394.875 87.06c0-8.953-7.265-16.208-16.224-16.208-8.963 0-16.225 7.255-16.225 16.208s7.262 16.208 16.225 16.208c8.96 0 16.224-7.255 16.224-16.208"/>
        <path fill="#617EB8" d="M378.651 103.269c3.415 0 6.58-1.058 9.193-2.858-2.28-3.275-5.55-5.342-9.193-5.342-3.646 0-6.913 2.067-9.193 5.342a16.145 16.145 0 0 0 9.193 2.858M384.89 86.869c0 4.529-2.793 8.2-6.239 8.2-3.446 0-6.238-3.671-6.238-8.2s2.792-8.2 6.238-8.2c3.446 0 6.238 3.671 6.238 8.2"/>
        <path fill="#A8B8D8" d="M32.45 88.838c0-8.953-7.265-16.208-16.224-16.208C7.266 72.63 0 79.885 0 88.838s7.265 16.208 16.225 16.208S32.45 97.791 32.45 88.838"/>
        <path fill="#617EB8" d="M16.226 105.047c3.415 0 6.58-1.06 9.194-2.86-2.283-3.275-5.55-5.34-9.194-5.34-3.646 0-6.913 2.065-9.193 5.34a16.153 16.153 0 0 0 9.193 2.86"/>
        <path fill="#617EB8" d="M22.465 88.647c0 4.53-2.793 8.2-6.239 8.2-3.446 0-6.238-3.67-6.238-8.2 0-4.529 2.792-8.2 6.238-8.2 3.446 0 6.239 3.671 6.239 8.2"/>
        <path fill="#A8B8D8" d="M271.656 136.833c0-4.477-3.633-8.106-8.114-8.106-4.479 0-8.111 3.63-8.111 8.106s3.632 8.102 8.11 8.102c4.482 0 8.115-3.626 8.115-8.102"/>
        <path fill="#617EB8" d="M263.542 144.936c1.707 0 3.291-.53 4.597-1.43-1.14-1.637-2.774-2.669-4.597-2.669-1.82 0-3.454 1.032-4.597 2.669a8.086 8.086 0 0 0 4.597 1.43M266.661 136.736c0 2.265-1.394 4.099-3.118 4.099-1.723 0-3.12-1.834-3.12-4.099 0-2.264 1.397-4.098 3.12-4.098 1.724 0 3.118 1.834 3.118 4.098"/>
        <path fill="#A8B8D8" d="M139.446 39.83c0-4.476-3.632-8.105-8.113-8.105-4.479 0-8.112 3.629-8.112 8.105 0 4.477 3.633 8.103 8.112 8.103 4.48 0 8.113-3.626 8.113-8.103"/>
        <path fill="#617EB8" d="M131.333 47.934c1.707 0 3.291-.53 4.596-1.43-1.14-1.635-2.773-2.669-4.596-2.669-1.82 0-3.454 1.034-4.597 2.669a8.08 8.08 0 0 0 4.597 1.43M134.452 39.734c0 2.265-1.395 4.099-3.118 4.099-1.723 0-3.12-1.834-3.12-4.099 0-2.264 1.397-4.098 3.12-4.098s3.118 1.834 3.118 4.098"/>
    </g>
</svg>
