<svg xmlns="http://www.w3.org/2000/svg" xmlns:xlink="http://www.w3.org/1999/xlink" width="678" height="436" viewBox="0 0 678 436">
    <defs>
        <path id="a" d="M0 .156h490.91v270.241H0z"/>
        <path id="c" d="M1.055.04A.566.566 0 0 0 .49.607v16.57c0 .312.253.566.566.566h18.44a.567.567 0 0 0 .566-.567V.606a.566.566 0 0 0-.567-.566"/>
        <path id="e" d="M1.055.04A.566.566 0 0 0 .49.607v16.57c0 .312.253.566.566.566h18.44a.567.567 0 0 0 .566-.567V.606a.566.566 0 0 0-.567-.566H1.055z"/>
        <path id="g" d="M1.055.04A.566.566 0 0 0 .49.607v16.57c0 .312.253.566.566.566h18.44a.567.567 0 0 0 .566-.567V.606a.566.566 0 0 0-.567-.566H1.055z"/>
        <path id="i" d="M7.786 6.043L.082 111.335l7.08.052L25.92 38.71l7.35 72.697h7.74l7.74-98.754L46.435.198z"/>
        <path id="k" d="M.79.095A.566.566 0 0 0 .224.66V29.75c0 .313.253.566.566.566h32.28a.567.567 0 0 0 .567-.566V.66a.567.567 0 0 0-.567-.566H.79z"/>
        <path id="m" d="M.79.095A.566.566 0 0 0 .224.66V29.75c0 .313.253.566.566.566h32.28a.567.567 0 0 0 .567-.566V.66a.567.567 0 0 0-.567-.566H.79z"/>
        <path id="o" d="M.79.095A.566.566 0 0 0 .224.66V29.75c0 .313.253.566.566.566h32.28a.567.567 0 0 0 .567-.566V.66a.567.567 0 0 0-.567-.566H.79z"/>
    </defs>
    <g fill="none" fill-rule="evenodd">
        <path fill="#2B59C3" d="M431.985 420.02c204.596 51.577 281.997-121.906 230.639-207.33-46.214-76.865-76.226-39.989-153.099-119.012-76.873-79.022-142.527-123.477-233.852-70.815-78.058 45.013-85.177 101.449-165.286 70.815-135.61-51.856-142.433 325.54-41.529 340.67 100.905 15.132 100.905-80.434 363.127-14.329z"/>
        <g transform="translate(80 89.41)">
            <mask id="b" fill="#fff">
                <use xlink:href="#a"/>
            </mask>
            <path fill="#8397FF" d="M453.332 270.397H46.713S-26.609 188.164 10.47 134.49c34.73-50.274 39.642 41.02 83.815 35.876 44.173-5.144-2.265-73.968 13.592-119.36 20.91-59.858 99.857-67.056 130.094-20.605 27.222 41.821 55.378 116.12 124.75 86.867 55.5-23.403 108.969-46.985 125.724 34.783 13.842 67.552-35.112 118.346-35.112 118.346" mask="url(#b)"/>
        </g>
        <path stroke="#7878BB" stroke-width="1.701" d="M283.956 267.642c-2.92 0-4.153-2.368-4.153-5.289v-1.264c0-2.92 1.234-5.288 4.153-5.288 2.92 0 4.154 2.367 4.154 5.288v1.264c0 2.92-1.234 5.29-4.154 5.29z"/>
        <path fill="#9A9AD9" d="M293.176 278.228h-18.44a.567.567 0 0 1-.566-.567v-16.569c0-.313.254-.567.567-.567h18.44c.312 0 .565.254.565.567v16.57a.567.567 0 0 1-.566.566"/>
        <g transform="translate(273.682 260.485)">
            <mask id="d" fill="#fff">
                <use xlink:href="#c"/>
            </mask>
            <path fill="#7878BB" d="M20.776 8.891H-.226a.566.566 0 0 1-.566-.566v-16.57c0-.313.253-.566.566-.566h21.002c.313 0 .566.253.566.567V8.325a.567.567 0 0 1-.566.566" mask="url(#d)"/>
            <mask id="f" fill="#fff">
                <use xlink:href="#e"/>
            </mask>
            <path stroke="navy" stroke-width=".567" d="M20.776 8.891H-.226a.566.566 0 0 1-.566-.566v-16.57c0-.313.253-.566.566-.566h21.002c.313 0 .566.253.566.567V8.325a.567.567 0 0 1-.566.566z" mask="url(#f)"/>
            <mask id="h" fill="#fff">
                <use xlink:href="#g"/>
            </mask>
            <path fill="#E8E8F4" d="M9.425 9.741h1.7v-1.7h-1.7z" mask="url(#h)"/>
        </g>
        <path fill="#A7A7DB" d="M265.765 167.82s-2.384 8.78-2.95 12.604c2.713.846 9.061 7.364 10.74 8.372 6.818 4.095 1.041-6.99 1.041-6.99l-2.46-.745s-1.345-10.338 0-11.754c1.345-1.417-6.371-1.487-6.371-1.487"/>
        <path fill="#D2D2F7" d="M267.77 149.173s7.848-.447 9.439 9.725c.94 6.01 2.076 14.728-.968 15.59-4.492 1.27-7.433-2.184-11.208-5.96-.869-.869-1.098-2.563-1.982-3.116-2.96-1.852-6.324-1.586-6.324-5.948 0-10.292 11.043-10.29 11.043-10.29M255.689 281.634v7.741s-3.398 5.099-3.115 13.973c.283 8.875 5.76 45.069 5.76 45.069l6.44 8.605 3.009.64-3.411-8.24.755-68.732-9.438.944z"/>
        <path fill="#F5F5FA" d="M279.425 228.223l-.43-9.766c-4.763-2.878-9.763-8.764-9.763-8.764v18.224l10.986 4.27-.793-3.964zm1.462-30.522c.64 3.665.458 11.063.458 11.063v.006c-.583-.266-1.087-.47-1.495-.59a32.82 32.82 0 0 0-1.087-1.755c-3.75-5.66-9.486-11.086-9.486-11.086s.566-3.172.351-4.203c-.6-2.906-5.595-10.48-5.595-10.48l8.63 5.851 1.932-4.701s1.098 1.518 1.495 1.994c1.551 1.863 5.08 5.489 5.833 7.75.498 1.478 0 5.046-1.036 6.151z"/>
        <path fill="#303098" d="M257.556 346.778c-2.276 1.806-.186 13.03-.186 13.03h1.98l.377-5.665 4.908 5.664h6.325v-1.227s-4.562-2.151-6.399-3.682c-3.124-2.604-3.874-4.644-7.005-8.12"/>
        <path fill="#D2D2F7" d="M284.666 241.461s2.202 8.051 2.294 11.093c.013.424.287 3.391-.151 4.402-.21.484-1.346 1.37-1.632 1.342-.925-.09-1.726-.897-2.052-1.121-2.928-2.009-2-14.063-2-14.063l3.54-1.653z"/>
        <path fill="#A7A7DB" d="M274.942 281.634v7.741s-3.398 5.099-3.114 13.973c.283 8.875 5.76 45.069 5.76 45.069l6.44 8.605 3.009.64-3.411-8.24.755-68.732-9.439.944z"/>
        <path fill="#14148A" d="M259.65 227.615s-6.038 2.375-7.076 12.855c-1.038 10.48.815 45.034.815 45.034l36.703-.33-7.692-42.06.493-9.887-3.09-3.907-17.224-5.42-2.93 3.715z"/>
        <path fill="#D2D2F7" d="M302.127 225.833s1.416 6.756 3.776 6.824c2.359.068 4.436 0 4.436 0l-.582-7.117s-5.46-2.728-6.97-2.728c-1.51 0-.66 3.021-.66 3.021"/>
        <path fill="#303098" d="M276.81 346.778c-2.276 1.806-.187 13.03-.187 13.03h1.98l.378-5.665 4.908 5.664h6.324v-1.227s-4.56-2.151-6.398-3.682c-3.124-2.604-3.874-4.644-7.005-8.12"/>
        <path fill="#1A1A8C" d="M302.882 227.628s-10.856-3.637-18.054-6.503l1.065 21.99h-3.494l-2.18-10.927-.794-3.965-.43-9.766c-4.763-2.878-9.763-8.764-9.763-8.764v25.679l-10.715-6.328 3.398-15.295s-3.019-8.304-6.134-15.765c-3.114-7.46-3.21-14.824-3.21-14.824l10.924-3.518.538 1.014s4.995 7.574 5.595 10.48c.215 1.03-.351 4.203-.351 4.203s5.737 5.427 9.486 11.086a32.82 32.82 0 0 1 1.087 1.756c.408.119.912.323 1.495.589v-.006s.181-7.398-.459-11.063c1.037-1.105 1.535-4.673 1.037-6.152-.753-2.26-4.282-5.885-5.833-7.75-.397-.475-1.495-1.993-1.495-1.993 3.279.742 6.32 1.575 7.52 2.3 3.115 1.886 2.17 25.774 2.17 25.774l.016.408c7.72 4.277 20.654 13.188 20.654 13.188l-2.073 4.152z"/>
        <path fill="#14148A" d="M272.293 155.54c-.582 4.705-5.184 8.173-5.184 8.173s-1.604-2.455-3.02-1.133c-1.416 1.321 1.416 4.437 1.416 4.437l.66 16.257s-8.076-1.214-13.591-7.288c8.495-8.166-1.322-20.204 8.872-25.963 6.628-3.745 11.49-.467 13.592 2.266 1.377 1.79 1.748 4.869 1.748 4.869s-2.257.582-4.493-1.617"/>
        <path fill="#D2D2F7" d="M308.135 229.281s.658-5.405 2.982-5.818c2.324-.413 4.389-.651 4.389-.651l2.464 7.77s-5.448 3.58-9.026 2.106c-1.396-.576-.809-3.407-.809-3.407"/>
        <path fill="#A7A7DB" d="M365.083 172.493l3.08 6.977 9.096-5.915-.779-10.409z"/>
        <path fill="#D2D2F7" d="M360.363 148.04s-2.303-.827-2.375 8.048c0 5.382 1.76 17.192 5.49 18.055 3.538.818 7.504-1.65 12.534-4.96l-.216-3.677c2.96-1.851 4.295-3.946 4.295-8.308 0-10.292-19.728-9.158-19.728-9.158"/>
        <path fill="#1A1A8C" d="M353.473 147.143c.708 4.036 4.425 5.76 6.23 6.444 3.205 1.213 11.68 1.7 11.68 1.7s-.212 7.151.92 8.284c1.133 1.133 1.883-7.866 4.996-4.372 2.508 2.814-1.503 6.308-1.503 6.308l.216 3.676s4.079-3.417 5.125-7.99c.873-3.82.973-9.009.066-10.829-1.221-2.452-4.045-3.4-8.57-4.684-4.577-1.298-9.757-5.264-12.86-5.264-5.238 0-6.907 3.265-6.3 6.727"/>
        <path fill="#F5F5FA" d="M366.478 175.892c-.461.047-4.58 4.178-4.58 4.178l3.468 64.932 19.35-3.021-4.626-66.09-2.831-2.336-8.153 6.127-2.628-3.79z"/>
        <path fill="#D2D2F7" d="M355.314 346.778l-1.557 8.403h-6.088l2.407-9.772z"/>
        <path fill="#DBDBED" d="M362.908 179.923l4.157 5.99 2.04-2.322 2.648 2.947 8.338-9.916-2.832-2.337-8.154 6.127-2.599-3.945z"/>
        <path fill="#D2D2F7" d="M387.31 346.778l-.283 8.403h-4.955v-9.772z"/>
        <path fill="#1A1A8C" d="M356.222 245.002l-7.704 105.293 7.08.052 18.758-72.678 7.35 72.696h7.74l7.74-98.754-2.316-12.453z"/>
        <g transform="translate(348.436 238.96)">
            <mask id="j" fill="#fff">
                <use xlink:href="#i"/>
            </mask>
            <path fill="#1A1A8C" d="M15.986-.566l9.935 39.275 7.35 72.697 15.48-.943-.33-93.622-2.42-20.618z" mask="url(#j)"/>
        </g>
        <g>
            <path stroke="#9A9AD9" stroke-width="1.701" d="M408.7 265.493c0 3.157-2.867 5.716-6.405 5.716-3.537 0-6.404-2.56-6.404-5.716 0-3.157 2.867-5.717 6.404-5.717 3.538 0 6.405 2.56 6.405 5.717z"/>
            <path fill="#CFCFE7" d="M418.317 294.2h-32.28a.566.566 0 0 1-.566-.567v-29.088c0-.313.253-.567.566-.567h32.28c.313 0 .566.254.566.567v29.088a.566.566 0 0 1-.566.567"/>
        </g>
        <g transform="translate(385.247 263.884)">
            <mask id="l" fill="#fff">
                <use xlink:href="#k"/>
            </mask>
            <path fill="#9A9AD9" d="M36.725 15.205H-2.628v-30.221H36.725V.094z" mask="url(#l)"/>
            <mask id="n" fill="#fff">
                <use xlink:href="#m"/>
            </mask>
            <path stroke="navy" stroke-width=".567" d="M36.725 15.205H-2.628v-30.221H36.725V.094z" mask="url(#n)"/>
            <mask id="p" fill="#fff">
                <use xlink:href="#o"/>
            </mask>
            <path fill="navy" d="M15.916 17.089h2.265V13.69h-2.265z" mask="url(#p)"/>
        </g>
        <g>
            <path fill="#D2D2F7" d="M399.062 251.87s-.614 7.199.519 8.757c1.133 1.558 5.64.165 5.64.165 1.274-1.77-.425-8.922-.425-8.922h-5.734z"/>
            <path fill="#1A1A8C" d="M378.392 175.892s17.505 4.056 20.346 8.497c5.644 8.827 7.992 28.201 8.536 38.992.485 9.63-1.888 30.26-1.888 30.26h-6.648l-1.652-32.154-.572-7.287.708 43.689h-14.866l-3.964-81.997zM367.065 257.889h-13.733l-.98-50.36s-5.084 12.08-8.336 14.813c-5.454 4.584-26.87 9.491-26.87 9.491l-2.04-8.958s18.269-9.225 19.953-11.496c1.685-2.271 6.718-15.943 14.003-25.037 3.126-3.902 14.888-8.184 14.888-8.184l3.115 79.731z"/>
            <path fill="#F5F5FA" d="M362.908 179.192l4.157 5.99 2.04-2.321 2.648 2.947 8.338-9.916-2.832-2.337-8.154 6.127-2.627-3.79z"/>
            <path fill="#14148A" d="M369 179.69l-1.534 2.73 1.07 1.838 1.732 45.264 2.754 4.143 1.96-5.388-4.917-44.247.396-2.187z"/>
            <path fill="#1A1A8C" d="M381.596 352.449s2.38 1.515 5.193 0c2.812-1.515 1.406 7.358 1.406 7.358h-4.11l-.542-1.947-5.733 1.947h-11.36s1.299-2.922 4.869-2.922 10.277-4.436 10.277-4.436M348.363 352.449s2.38 1.515 5.193 0c2.813-1.515 1.406 7.358 1.406 7.358h-4.11l-.542-1.947-5.733 1.947h-11.36s1.3-2.922 4.87-2.922c3.569 0 10.276-4.436 10.276-4.436"/>
            <path fill="#6363B1" d="M97.196 360.374h451.052"/>
            <path stroke="#D2D2F7" stroke-width="1.134" d="M97.196 360.374h451.052"/>
            <path fill="#6363B1" d="M107.625 382.277h73.901"/>
            <path stroke="#D2D2F7" stroke-width="1.134" d="M107.625 382.277h73.901"/>
            <path fill="#6363B1" d="M196.698 382.277H270.6"/>
            <path stroke="#D2D2F7" stroke-width="1.134" d="M196.698 382.277H270.6"/>
            <path fill="#6363B1" d="M285.771 382.277h73.902"/>
            <path stroke="#D2D2F7" stroke-width="1.134" d="M285.771 382.277h73.902"/>
            <path fill="#6363B1" d="M374.844 382.277h73.901"/>
            <path stroke="#D2D2F7" stroke-width="1.134" d="M374.844 382.277h73.901"/>
            <g>
                <path fill="#6363B1" d="M463.918 382.277h73.9"/>
                <path stroke="#D2D2F7" stroke-width="1.134" d="M463.918 382.277h73.9"/>
            </g>
            <path fill="#ADBAFF" d="M159.56 313.262c-22.936 0-44.928-27.757-24.918-30.684 13.28-1.943-10.016-13.202-9.438-24.689.679-13.518 18.125-2.88 8.105-16.397-7.946-10.718-6.324-20.863 6.701-16.994 12.466 3.702 6.608-13.528 9.076-21.843 3.22-10.853 18.478-5.426 19.886 13.515.318 4.285-2.328 12.03 10.138 8.328 13.026-3.87 14.648 6.276 6.702 16.994-10.02 13.516 7.426 2.88 8.105 16.397.577 11.487-22.718 22.746-9.439 24.689 20.01 2.927-1.982 30.684-24.918 30.684"/>
            <g fill="#7272C1">
                <path d="M158.501 325.252V223.976c0-1.093-1.698-1.095-1.698 0v101.276c0 1.094 1.698 1.096 1.698 0"/>
                <path d="M158.385 285.269c4.415-8.55 9.958-16.947 17.581-22.963.858-.677-.351-1.872-1.2-1.202-7.718 6.09-13.379 14.653-17.847 23.307-.502.97.964 1.831 1.466.858M158.376 296.314c-1.45-10.72-5.94-20.931-14.044-28.265-.81-.732-2.014.466-1.202 1.202 7.912 7.159 12.193 17.061 13.607 27.514.146 1.08 1.784.62 1.639-.451M158.385 262.83a130.622 130.622 0 0 0-4.698-9.367c-1.578-2.856-3.317-6.49-6.078-8.41-.9-.625-1.75.847-.857 1.468 2.79 1.94 4.554 6.08 6.111 8.982a134.298 134.298 0 0 1 4.056 8.185c.449.996 1.913.132 1.466-.857M158.67 248.162c2.57-5.336 7.045-9.234 12.08-12.197.941-.554.087-2.024-.858-1.467-5.264 3.098-10.001 7.228-12.69 12.806-.472.982.992 1.844 1.468.858"/>
            </g>
            <path fill="#6E8AFF" d="M178.812 359.807h-38.503l-5.45-33.239a1.132 1.132 0 0 1 1.117-1.316h47.169c.698 0 1.23.626 1.117 1.316l-5.45 33.24z"/>
            <path fill="#6363B1" d="M183.21 332.992h-47.3l.188 1.133h46.925z"/>
        </g>
    </g>
</svg>
