<svg xmlns="http://www.w3.org/2000/svg" xmlns:xlink="http://www.w3.org/1999/xlink" width="679" height="437" viewBox="0 0 679 437">
    <defs>
        <path id="a" d="M432.258 420.282c204.726 51.61 282.175-121.982 230.784-207.458-46.242-76.914-76.274-40.015-153.195-119.087-76.921-79.072-142.617-123.555-234-70.86-78.108 45.04-85.231 101.512-165.39 70.86C-25.24 41.847-32.066 419.479 68.902 434.62c100.968 15.14 100.968-80.485 363.356-14.338z"/>
        <path id="c" d="M459.439 188.098c-.012.627-.45.96-1.368.96H.057c51.124-4.203 99.446-76.096 131.661-115.329C163.933 34.496 215.586.168 230.464.168c25.913 0 107.321 69.961 130.272 94.445 21.447 22.879 98.548 84.77 98.703 93.433v.052"/>
        <path id="e" d="M0 189.157c51.124-4.203 99.446-76.096 131.661-115.329C163.876 34.596 215.53.268 230.407.268c25.912 0 107.322 69.96 130.273 94.444 23.083 24.625 110.64 94.445 97.333 94.445"/>
        <path id="g" d="M131.801 73.842C99.586 113.075 51.264 184.968.141 189.172h458.012c13.306 0-74.25-69.821-97.334-94.446C337.87 70.243 256.46.281 230.547.281c-14.878 0-66.53 34.329-98.746 73.561"/>
        <linearGradient id="h" x1="50%" x2="50%" y1="-9.108%" y2="96.393%">
            <stop offset="0%" stop-color="#AAD3FF"/>
            <stop offset="100%" stop-color="#77B6EF"/>
        </linearGradient>
        <linearGradient id="j" x1="80.157%" x2="41.008%" y1="0%" y2="65.344%">
            <stop offset="0%" stop-color="#77B6EF"/>
            <stop offset="100%" stop-color="#8EBCED" stop-opacity="0"/>
        </linearGradient>
        <linearGradient id="k" x1="50%" x2="50%" y1="-9.108%" y2="96.393%">
            <stop offset="0%" stop-color="#8EBCED"/>
            <stop offset="100%" stop-color="#77B6EF" stop-opacity="0"/>
        </linearGradient>
        <linearGradient id="l" x1="50%" x2="50%" y1="-9.109%" y2="96.393%">
            <stop offset="0%" stop-color="#8EBCED"/>
            <stop offset="100%" stop-color="#77B6EF" stop-opacity="0"/>
        </linearGradient>
        <path id="m" d="M8.672 1.76L5.489 35.97.15 63.82l3.852.875s8.754-19.85 11.439-29.074c1.442-4.955 5.252-19.966 5.252-19.966l13.248 11.384-6.128 26.973 6.128.175s9.8-21.734 9.279-29.425C42.754 17.873 27.309.247 27.309.247L8.672 1.76z"/>
        <linearGradient id="o" x1=".013%" x2="100.013%" y1="50%" y2="50%">
            <stop offset="0%" stop-color="#0034A5"/>
            <stop offset="100%" stop-color="#000069"/>
        </linearGradient>
        <path id="p" d="M.035.183H32.39v19.784H.035z"/>
        <path id="r" d="M0 197.564h131.871V.131H0z"/>
        <path id="t" d="M10.26.13c-2.362 0-4.694.126-6.991.368-3.326 12.43.453 39.056-1.7 65.167-2.65 32.168-1.573 67.873 5.612 76.159 1.054.134 2.083.203 3.079.203 2.288 0 4.74-.36 7.303-1.045 15.565-9.104 45.082-40.442 45.082-70.814 0-29.796-6.977-47.998-16.085-59.15"/>
    </defs>
    <g fill="none" fill-rule="evenodd">
        <mask id="b" fill="#fff">
            <use xlink:href="#a"/>
        </mask>
        <use fill="#C4E2FF" xlink:href="#a"/>
        <g mask="url(#b)">
            <path fill="#D0E8FF" d="M193.296 205.68h86.993s4.104-13.683-13.951-13.683c-18.056 0-14.5-12.588-36.658-12.588-18.329 0-26.9 8.283-36.11 10.673-10.364 2.688-33.396-4.137-38.847 15.599h38.573zM368.445 301.92h57.595s2.716-9.059-9.237-9.059c-11.954 0-9.6-8.334-24.27-8.334-12.134 0-17.808 5.484-23.907 7.066-6.861 1.78-22.11-2.739-25.718 10.327h25.537zM441.387 239.149h86.994s4.103-13.684-13.952-13.684-14.499-12.588-36.658-12.588c-18.328 0-26.898 8.283-36.11 10.673-10.363 2.687-33.395-4.137-38.846 15.599h38.572z"/>
            <g transform="translate(239.336 332.196)">
                <mask id="d" fill="#fff">
                    <use xlink:href="#c"/>
                </mask>
                <path fill="#B3D9FF" d="M230.464.168c-14.878 0-66.53 34.328-98.746 73.561C99.503 112.962 51.181 184.855.058 189.059H458.07c13.306 0-74.252-69.821-97.335-94.446C337.786 70.129 256.376.168 230.464.168" mask="url(#d)"/>
            </g>
            <g transform="translate(-52 351.462)">
                <mask id="f" fill="#fff">
                    <use xlink:href="#e"/>
                </mask>
                <path fill="#B3D9FF" d="M230.407.267c-14.878 0-66.53 34.329-98.746 73.561C99.446 113.061 51.124 184.954 0 189.158h458.013c13.307 0-74.25-69.821-97.333-94.446C337.729 70.23 256.32.267 230.407.267" mask="url(#f)"/>
            </g>
            <g transform="translate(92.267 270.194)">
                <mask id="i" fill="#fff">
                    <use xlink:href="#g"/>
                </mask>
                <path fill="url(#h)" d="M131.801 73.842C99.586 113.075 51.264 184.968.141 189.172h458.012c13.306 0-74.25-69.821-97.334-94.446C337.87 70.243 256.46.281 230.547.281c-14.878 0-66.53 34.329-98.746 73.561" mask="url(#i)"/>
            </g>
            <path fill="url(#j)" d="M.268 24.88l33.266 14.945C30.207 19.965 42.754 2.3 42.754 2.3L32.132.106.268 24.879z" transform="translate(264.898 299.619)"/>
            <path fill="url(#j)" d="M.151 21.96l19.026 8.164c3.532-19.377 12.23-27.608 12.23-27.608L21.034.186S8.088 9.117.15 21.96" transform="translate(305.166 289.46)"/>
            <path fill="url(#k)" d="M299.89 241.41c-35.733 7.885-105.052 74.314-105.052 74.314l343.87 10.45c-36.77-11.378-85.098-81.962-150.134-69.796-17.68 3.307-27.84-2.373-38.837-8.054-8.741-4.516-18.01-9.032-32.006-9.031-5.217 0-11.092.628-17.84 2.117" transform="translate(-52 120)"/>
            <path fill="url(#l)" d="M395.84 196.509c-16.04 3.539-27.252 30.902-59.875 39.405l163.625 3.378c-7.879-5.35-31.048-34.472-59.107-28.598-8.067 1.69-13.803-2.774-20.047-7.238-5.318-3.802-11.005-7.604-18.817-7.604-1.805 0-3.725.203-5.78.657" transform="translate(-52 120)"/>
            <path fill="#A6D2FF" d="M296.097 294.373l-.992 3.911s1.634.292 2.976.292c.467-1.167.876-3.794.876-3.794l-2.86-.41zM324.343 284.623l-.642 3.503s2.393.584 3.21 0c.38-2.233.817-4.087.817-4.087l-3.385.584z"/>
            <path fill="#70B8FF" d="M305.785 188.818s.846 4.643.846 6.384c6.536 0 7.128-.334 7.128-.334s.345-4.868.371-7.684l-8.345 1.634z"/>
            <path fill="#A6D2FF" d="M314.539 178.893c1.533 5.255 1.284 10.8-1.751 11.648-4.075 1.137-9.999-1.003-11.468-5.927-1.47-4.924.625-9.897 4.678-11.108 4.053-1.21 7.075.366 8.54 5.387"/>
            <path fill="#001C55" d="M304.034 233.072l-3.183 34.212-5.338 27.848 3.852.876s8.754-19.85 11.439-29.074c1.442-4.956 5.252-19.967 5.252-19.967l13.248 11.384-6.128 26.973 6.128.175s9.8-21.733 9.28-29.424c-.468-6.89-15.913-24.516-15.913-24.516l-18.637 1.513z"/>
            <g transform="translate(295.362 231.312)">
                <mask id="n" fill="#fff">
                    <use xlink:href="#m"/>
                </mask>
                <path fill="#001C55" d="M19.877 24.879C19.877 18.499 22.95.6 22.95.6L53.493.247 35.4 54.9l-11.555 1.106 5.369-29.025-9.338-2.102z" mask="url(#n)"/>
            </g>
            <g>
                <path fill="#001C55" d="M298.287 297.37s-1.472.937-3.211 0c-1.74-.937-.87 4.55-.87 4.55h2.542l.335-1.204 3.545 1.204h7.023s-.803-1.806-3.01-1.806-6.354-2.744-6.354-2.744M327.21 287.426s-1.472.937-3.21 0c-1.74-.937-.87 4.55-.87 4.55h2.541l.335-1.204 3.545 1.204h7.024s-.803-1.807-3.01-1.807c-2.208 0-6.355-2.743-6.355-2.743M312.058 176.47c-1.735 1.302-9.542 3.007-9.542 3.007s.247 1.547-.043 2.51c-.156.518-.97.124-.963.482.01.487.317 2.858 1.488 2.89.219 1.509.002 2.061.002 2.061s-4.569-2.455-4.569-9.11c0-6.656 3.28-5.29 8.638-10.334 5.952-5.605 9.191 5.342 4.99 8.495"/>
                <path fill="#A6D2FF" d="M357.784 199.502s1.562-.033 2.903-.744c1.072 1.15 3.174 1.191 3.526.047.351-1.144.76-2.758.302-3.762-.703-1.543-1.678-1.347-2.234-1.193-1.106.305-1.696.807-3.428 1.321l-2.127.599 1.058 3.732z"/>
                <path fill="#F2F4F7" d="M358.542 200.028s-13.152 7.31-19.084 8.01c-3.553.421-15.407-4.003-15.407-3.376.018 10.067-.304 26.895-.735 27.754l-16.759.57-2.524.085s-.13-1.202-.368-3.072c-.74-5.875-2.525-18.352-4.65-21.098-3.502 2.22-5.823 6.424-5.719 8.407.176 3.327 9.92 12.379 9.92 12.379l-.038.196-.007.028-1.05 3.65v.004c-.025.035-.046.066-.07.09 0 0-15.526-10.042-15.526-16.698 0-4.434 8.988-15.994 8.988-15.994s4.107-5.398 12.294-6.69c.385-.064 2.283 1.565 2.998 1.453.812-.126 2.24-2.186 2.63-2.214 7.202-.536 9.128.999 11.492 2.466 4.265 2.652 12.445 4.915 14.531 4.663 6.478-.788 18.384-6.218 18.384-6.218l.7 5.605z"/>
                <path fill="#D4ECEB" d="M303.171 229.911c-.143.729-.62 3.006-1.05 3.65l1.05-3.65z"/>
                <path fill="#A6D2FF" d="M305.626 234.314c-1.72.837-2.914-.07-3.505-.75v-.003c.43-.644.907-2.921 1.05-3.65l.007-.028c.158.039.322.077.487.116.634.15 1.289.336 1.61.504.291.154 1.478 1.268.35 1.268 0 .557.61.883.932 1.216.336.343.36.693-.931 1.327"/>
                <path fill="#D4DDDD" d="M305.109 195.99l5.111 3.425.875-2.803 1.401 2.452 3.327-4.787-1.237-1.732-3.782 3.18-5.695-2.09z"/>
                <path fill="#F2F4F7" d="M305.109 195.202l5.111 3.425.875-2.803 1.401 2.452 3.327-4.787-1.237-1.732-3.782 3.18-5.695-2.09z"/>
            </g>
            <path fill="url(#o)" d="M412.718 109.479h1.05V.189h-1.05z" transform="translate(-52 120)"/>
            <path fill="#A6D2FF" d="M362.325 194.006c.436-.377 1.678-.58 2.19 1.037.22.694.124 2.678-.302 3.762-.327.83-2.139 1.386-2.752-.061-.497-1.17-.418-3.63.864-4.738"/>
            <path fill="#1D65AB" d="M361.769 120.226s16.146-1.816 27.53 8.01c13.873 11.977 25.894 1.079 34.899-.523-7.354 12.555-4.071 32.01-4.071 32.01s-12.263 11.653-29.18 6.77c-7.944-2.295-18.09-13.312-29.178-13.312v-32.955z"/>
            <path fill="#A6D2FF" d="M358.853 195.171s3.06-3.2 3.956-2.124c.7.839-1.762 1.114-2.385 2.947"/>
            <g>
                <path fill="#3A97FE" d="M133.681 306.368l-1.15.11-2.807-29.226 1.15-.11zM136.63 307.234l-1.153-.079 1.994-29.293 1.152.078zM150.887 306.368l-1.15.11-2.807-29.226 1.15-.11zM153.836 307.234l-1.152-.079 1.992-29.293 1.153.078z"/>
                <g transform="translate(76.86 132.48)">
                    <path fill="#9BCBFE" d="M82.113 173.52v3.568H49.758v-3.568c0-.437.153-.839.407-1.156a1.838 1.838 0 0 1 1.442-.693h28.657c.585 0 1.105.27 1.443.693.253.317.406.72.406 1.156"/>
                    <g transform="translate(49.723 177.598)">
                        <mask id="q" fill="#fff">
                            <use xlink:href="#p"/>
                        </mask>
                        <path fill="#9BCBFE" d="M.035.183H32.39v17.934a1.85 1.85 0 0 1-1.849 1.85H1.884a1.85 1.85 0 0 1-1.85-1.85V.183z" mask="url(#q)"/>
                    </g>
                    <path fill="#9BCBFE" fill-opacity=".2" d="M80.264 197.564a1.849 1.849 0 0 0 1.85-1.85v-17.933H49.757l8.782 19.783h21.724z" style="mix-blend-mode:multiply"/>
                    <path fill="#9BCBFE" d="M84.064 173.52v1.718a1.85 1.85 0 0 1-1.85 1.85H49.657a1.85 1.85 0 0 1-1.849-1.85v-1.718c0-1.022.828-1.85 1.85-1.85h32.558c1.021 0 1.849.828 1.849 1.85"/>
                    <mask id="s" fill="#fff">
                        <use xlink:href="#r"/>
                    </mask>
                    <path fill="#3A97FE" d="M49.758 177.781h32.355v-.693H49.758z" mask="url(#s)"/>
                    <path fill="#4EA1FE" d="M131.87 66.092c0 32.948-34.353 68.415-58.631 74.89-2.564.685-5.015 1.045-7.303 1.045-.997 0-2.025-.07-3.079-.203C38.573 138.744.001 101.002.001 66.092 0 32.026 25.815 3.99 58.945.498a66.501 66.501 0 0 1 6.99-.367c13.412 0 25.89 4.006 36.3 10.887 17.856 11.802 29.636 32.061 29.636 55.074" mask="url(#s)"/>
                    <path fill="#4EA1FE" d="M131.871 66.091c0-22.663-11.427-42.655-28.831-54.529a62.053 62.053 0 0 0-7.66-1.986C80.514 6.673 84.818 44.68 77.84 80.433c-4.244 21.75-6.926 45.349-6.176 60.93 24.337-5.309 60.206-41.604 60.206-75.272" mask="url(#s)"/>
                    <path fill="#81BDFE" d="M80.81 84.725a196.008 196.008 0 0 1 44.936 6.89c3.827-8.313 6.125-17.003 6.125-25.524 0-3.274-.242-6.492-.703-9.639a231.368 231.368 0 0 0-49.095-7.075l-1.262 35.348" mask="url(#s)"/>
                    <path fill="#56A6FE" d="M118.32 70.168c0 30.372-29.516 61.71-45.081 70.814-2.563.684-5.015 1.046-7.303 1.046-.996 0-2.025-.07-3.079-.204-7.185-8.286-8.262-43.991-5.61-76.16 2.15-26.11-1.628-52.737 1.698-65.166a66.501 66.501 0 0 1 6.99-.367c13.412 0 25.89 4.006 36.3 10.887 9.109 11.152 16.086 29.354 16.086 59.15" mask="url(#s)"/>
                </g>
                <g transform="translate(132.536 132.48)">
                    <mask id="u" fill="#fff">
                        <use xlink:href="#t"/>
                    </mask>
                    <path fill="#81BDFE" d="M66.144 74.641a196.035 196.035 0 0 0-61.149-5.04L2.35 34.33a231.382 231.382 0 0 1 72.174 5.948l-8.38 34.363" mask="url(#u)"/>
                </g>
                <path fill="#4EA1FE" d="M76.86 198.571c0 33.668 35.87 69.963 60.207 75.271.75-15.58-1.933-39.18-6.177-60.929-6.977-35.754-2.674-73.76-17.538-70.857-2.18.425-4.8 1.038-7.66 1.986-17.404 11.874-28.832 31.865-28.832 54.529"/>
                <path fill="#81BDFE" d="M126.658 181.857a231.393 231.393 0 0 0-49.095 7.075 66.534 66.534 0 0 0-.703 9.639c0 8.521 2.298 17.21 6.125 25.523a196.008 196.008 0 0 1 44.936-6.89l-1.263-35.347"/>
                <path fill="#56A6FE" d="M90.41 202.648c0 30.372 29.517 61.71 45.083 70.814 2.563.684 5.015 1.045 7.303 1.045.996 0 2.024-.07 3.078-.203 7.185-8.286 8.262-43.991 5.611-76.16-2.151-26.11 1.627-52.737-1.698-65.166a66.5 66.5 0 0 0-6.991-.367c-13.412 0-25.89 4.006-36.3 10.886-9.108 11.153-16.086 29.355-16.086 59.15"/>
                <path fill="#81BDFE" d="M148.06 202.081l2.645-35.271a231.385 231.385 0 0 0-56.616 2.713c-2.311 9.037-3.679 19.944-3.679 33.125 0 1.206.052 2.414.143 3.622a196.049 196.049 0 0 1 57.507-4.189"/>
                <path fill="#4EA1FE" d="M170.217 198.571c0 36.429-17.464 75.936-27.421 75.936S115.374 235 115.374 198.571c0-36.429 12.277-65.96 27.422-65.96 15.144 0 27.42 29.531 27.42 65.96"/>
                <path fill="#81BDFE" d="M120.94 158.735c-3.212 10.18-5.223 22.674-5.525 36.26a196.016 196.016 0 0 1 54.762 0c-.302-13.586-2.314-26.08-5.526-36.26a231.36 231.36 0 0 0-43.71 0"/>
                <path fill="#AED4FE" d="M142.796 269.514l-19.299-.058s1.622 5.205 2.698 7.669c.657 1.507 1.752 3.844 5.911 3.844H153.485c4.16 0 5.254-2.337 5.912-3.844 1.076-2.464 2.697-7.67 2.697-7.67l-19.298.059z"/>
            </g>
        </g>
    </g>
</svg>
